<?xml version="1.0" encoding="UTF-8" standalone="no"?>
<svg xmlns:dc="http://purl.org/dc/elements/1.1/" xmlns:cc="http://creativecommons.org/ns#" xmlns:rdf="http://www.w3.org/1999/02/22-rdf-syntax-ns#" xmlns:svg="http://www.w3.org/2000/svg" xmlns="http://www.w3.org/2000/svg" viewBox="0 0 117.89333 45.82" height="45.82" width="117.89333" xml:space="preserve" id="svg29" version="1.1"><metadata id="metadata35"><rdf:RDF><cc:Work rdf:about=""><dc:format>image/svg+xml</dc:format><dc:type rdf:resource="http://purl.org/dc/dcmitype/StillImage"/><dc:title/></cc:Work></rdf:RDF></metadata><defs id="defs33"><clipPath id="clipPath45" clipPathUnits="userSpaceOnUse"><path id="path43" d="M 0,612 H 792 V 0 H 0 Z"/></clipPath><clipPath id="clipPath237" clipPathUnits="userSpaceOnUse"><path id="path235" d="M 0,612 H 792 V 0 H 0 Z"/></clipPath><clipPath id="clipPath259" clipPathUnits="userSpaceOnUse"><path id="path257" d="M 0,612 H 792 V 0 H 0 Z"/></clipPath><clipPath id="clipPath463" clipPathUnits="userSpaceOnUse"><path id="path461" d="M 0,612 H 792 V 0 H 0 Z"/></clipPath></defs><g transform="matrix(1.3333333,0,0,-1.3333333,-46.005332,771.35465)" id="g39"><g id="g41" clip-path="url(#clipPath45)"><g id="g997"><g transform="translate(118.716,567.541)" id="g135"><path id="path137" style="fill:#fcd000;fill-opacity:1;fill-rule:nonzero;stroke:none" d="m 0,0 -27.289,0.002 c -0.921,6.201 -6.252,10.973 -12.716,10.973 -6.461,0 -11.793,-4.772 -12.711,-10.973 L -80.008,0 c -2.317,0 -4.204,-1.891 -4.204,-4.211 v -14.968 c 0,-2.319 1.887,-4.211 4.204,-4.211 H 0 c 2.32,0 4.208,1.892 4.208,4.211 V -4.211 C 4.208,-1.891 2.32,0 0,0"/></g><g transform="translate(118.465,564.899)" id="g139"><path id="path141" style="fill:#00af42;fill-opacity:1;fill-rule:nonzero;stroke:none" d="m 0,0 h -79.506 c -0.996,0 -1.807,-0.813 -1.807,-1.811 v -14.488 c 0,-0.997 0.811,-1.802 1.807,-1.802 H 0 c 0.995,0 1.809,0.805 1.809,1.802 V -1.811 C 1.809,-0.813 0.995,0 0,0"/></g><g transform="translate(42.9383,549.502)" id="g143"><path id="path145" style="fill:#ffffff;fill-opacity:1;fill-rule:nonzero;stroke:none" d="m 0,0 c -1.759,0 -2.549,1.228 -2.724,3.318 l 1.88,0.334 C -0.707,2.158 -0.439,1.791 0,1.791 c 0.492,0 0.701,0.318 0.701,1.107 0,1.178 -0.366,1.727 -1.475,2.955 -1.248,1.264 -1.864,2.423 -1.864,3.831 0,1.724 0.845,3.008 2.531,3.008 1.723,0 2.407,-1.164 2.635,-2.975 L 0.685,9.332 C 0.543,10.54 0.335,10.91 -0.107,10.91 -0.528,10.91 -0.74,10.611 -0.74,9.842 -0.74,8.978 -0.439,8.468 0.528,7.429 1.949,5.991 2.62,4.761 2.62,3.074 2.62,1.261 1.671,0 0,0"/></g><g transform="translate(46.6279,549.693)" id="g147"><path id="path149" style="fill:#ffffff;fill-opacity:1;fill-rule:nonzero;stroke:none" d="M 0,0 V 12.307 H 4.603 V 10.474 H 1.967 V 7.401 H 3.989 V 5.573 H 1.967 V 1.83 H 4.763 V 0 Z"/></g><g transform="translate(54.7829,549.502)" id="g151"><path id="path153" style="fill:#ffffff;fill-opacity:1;fill-rule:nonzero;stroke:none" d="m 0,0 c -1.757,0 -2.548,1.228 -2.728,3.318 l 1.884,0.334 C -0.698,2.158 -0.438,1.791 0,1.791 c 0.493,0 0.701,0.318 0.701,1.107 0,1.178 -0.366,1.727 -1.474,2.955 -1.251,1.264 -1.864,2.423 -1.864,3.831 0,1.724 0.844,3.008 2.529,3.008 1.725,0 2.41,-1.164 2.639,-2.975 L 0.686,9.332 c -0.143,1.208 -0.351,1.578 -0.794,1.578 -0.421,0 -0.629,-0.299 -0.629,-1.068 0,-0.864 0.299,-1.374 1.264,-2.413 C 1.952,5.991 2.618,4.761 2.618,3.074 2.618,1.261 1.665,0 0,0"/></g><g transform="translate(63.9211,549.693)" id="g155"><path id="path157" style="fill:#ffffff;fill-opacity:1;fill-rule:nonzero;stroke:none" d="M 0,0 -1.949,12.307 H -4.058 L -6.008,0 h 1.95 l 0.318,2.707 h 1.438 L -1.965,0 Z m -2.493,4.478 h -1.092 l 0.264,2.237 c 0.106,0.879 0.228,1.896 0.264,2.864 0.053,-0.968 0.176,-1.968 0.28,-2.847 z"/></g><g transform="translate(70.0384,549.693)" id="g159"><path id="path161" style="fill:#ffffff;fill-opacity:1;fill-rule:nonzero;stroke:none" d="M 0,0 V 3.216 C 0,4.708 0.051,6.134 0.088,7.401 -0.089,6.43 -0.472,4.602 -0.79,3.358 L -1.669,-0.37 -2.532,3.358 C -2.831,4.55 -3.214,6.469 -3.389,7.401 -3.372,6.237 -3.304,4.656 -3.304,3.216 V 0 h -1.758 v 12.307 h 1.934 l 0.807,-3.746 c 0.264,-1.113 0.545,-2.531 0.652,-3.532 0.104,1.001 0.402,2.438 0.666,3.546 l 0.828,3.732 H 1.757 V 0 Z"/></g><g transform="translate(73.393,549.693)" id="g163"><path id="path165" style="fill:#ffffff;fill-opacity:1;fill-rule:nonzero;stroke:none" d="M 0,0 V 12.307 H 4.607 V 10.474 H 1.972 V 7.401 h 2.02 V 5.573 H 1.972 V 1.83 h 2.79 V 0 Z"/></g><g transform="translate(84.8357,549.502)" id="g167"><path id="path169" style="fill:#ffffff;fill-opacity:1;fill-rule:nonzero;stroke:none" d="m 0,0 c -1.758,0 -2.549,1.228 -2.724,3.318 l 1.88,0.334 C -0.704,2.158 -0.437,1.791 0,1.791 c 0.493,0 0.702,0.318 0.702,1.107 0,1.178 -0.366,1.727 -1.474,2.955 -1.25,1.264 -1.867,2.423 -1.867,3.831 0,1.724 0.847,3.008 2.538,3.008 1.718,0 2.403,-1.164 2.63,-2.975 L 0.686,9.332 c -0.144,1.208 -0.35,1.578 -0.787,1.578 -0.427,0 -0.635,-0.299 -0.635,-1.068 0,-0.864 0.299,-1.374 1.268,-2.413 C 1.952,5.991 2.619,4.761 2.619,3.074 2.619,1.261 1.673,0 0,0"/></g><g transform="translate(91.4088,560.167)" id="g171"><path id="path173" style="fill:#ffffff;fill-opacity:1;fill-rule:nonzero;stroke:none" d="M 0,0 V -10.474 H -1.968 V 0 H -3.62 V 1.833 H 1.671 V 0 Z"/></g><g transform="translate(99.5097,549.693)" id="g175"><path id="path177" style="fill:#ffffff;fill-opacity:1;fill-rule:nonzero;stroke:none" d="m 0,0 -1.213,5.974 c 0.688,0.549 1.092,1.515 1.092,2.935 0,2.569 -1.246,3.398 -2.774,3.398 H -5.463 V 0 h 1.949 v 5.413 h 0.493 L -2.001,0 Z M -2.109,8.825 C -2.109,7.522 -2.443,7.03 -3.11,7.03 h -0.404 v 3.604 h 0.457 c 0.688,0 0.948,-0.459 0.948,-1.809"/></g><g transform="translate(100.81,549.693)" id="g179"><path id="path181" style="fill:#ffffff;fill-opacity:1;fill-rule:nonzero;stroke:none" d="M 0,0 V 12.307 H 4.607 V 10.474 H 1.967 V 7.401 H 3.989 V 5.573 H 1.967 V 1.83 H 4.763 V 0 Z"/></g><g transform="translate(106.84,549.693)" id="g183"><path id="path185" style="fill:#ffffff;fill-opacity:1;fill-rule:nonzero;stroke:none" d="M 0,0 V 12.307 H 4.603 V 10.474 H 1.968 V 7.401 H 3.987 V 5.573 H 1.968 V 1.83 H 4.76 V 0 Z"/></g><g transform="translate(115.82,560.167)" id="g187"><path id="path189" style="fill:#ffffff;fill-opacity:1;fill-rule:nonzero;stroke:none" d="M 0,0 V -10.474 H -1.966 V 0 H -3.621 V 1.833 H 1.671 V 0 Z"/></g><g transform="translate(118.706,548.83)" id="g191"><path id="path193" style="fill:#ffffff;fill-opacity:1;fill-rule:nonzero;stroke:none" d="m 0,0 c 0,-0.095 -0.058,-0.146 -0.156,-0.146 h -0.268 v 0.285 h 0.268 C -0.063,0.139 0,0.098 0,0 m 0.239,0.005 c 0,0.237 -0.17,0.351 -0.382,0.351 h -0.516 v -1.115 h 0.235 v 0.407 h 0.193 l 0.197,-0.407 h 0.265 l -0.217,0.438 c 0.122,0.048 0.225,0.133 0.225,0.326 M 0.77,-0.224 c 0,0.581 -0.438,1.025 -1.017,1.025 -0.577,0 -1.018,-0.444 -1.018,-1.025 0,-0.574 0.441,-1.018 1.018,-1.018 0.579,0 1.017,0.444 1.017,1.018 m -0.18,0 c 0,-0.472 -0.36,-0.833 -0.837,-0.833 -0.474,0 -0.837,0.361 -0.837,0.833 0,0.479 0.363,0.841 0.837,0.841 0.477,0 0.837,-0.362 0.837,-0.841"/></g><g transform="translate(88.2275,568.308)" id="g195"><path id="path197" style="fill:#00af42;fill-opacity:1;fill-rule:nonzero;stroke:none" d="m 0,0 c -0.802,4.239 -4.977,7.561 -9.517,7.561 -4.537,0 -8.723,-3.322 -9.519,-7.561 -0.006,-0.632 0.486,-0.765 0.672,-0.765 h 17.678 c 0.19,0 0.69,0.133 0.69,0.738 v 0.017 z"/></g><g transform="translate(74.8877,569.136)" id="g199"><path id="path201" style="fill:#ffffff;fill-opacity:1;fill-rule:nonzero;stroke:none" d="M 0,0 V 3.111 H -0.566 V 3.577 C -0.152,3.623 0.025,3.871 0.11,4.178 H 0.748 V 0 Z"/></g><g transform="translate(74.8877,569.136)" id="g203"><path id="path205" style="fill:none;stroke:#ffffff;stroke-width:0.15000001;stroke-linecap:butt;stroke-linejoin:miter;stroke-miterlimit:4;stroke-dasharray:none;stroke-opacity:1" d="M 0,0 V 3.111 H -0.566 V 3.577 C -0.152,3.623 0.025,3.871 0.11,4.178 H 0.748 V 0 Z"/></g><g transform="translate(77.0838,569.136)" id="g207"><path id="path209" style="fill:#ffffff;fill-opacity:1;fill-rule:nonzero;stroke:none" d="m 0,0 c 0.045,1.277 0.442,1.809 1.235,2.375 0.287,0.21 0.394,0.384 0.394,0.638 0,0.33 -0.171,0.484 -0.478,0.484 C 0.888,3.497 0.68,3.351 0.48,3.123 L 0.017,3.668 C 0.295,4.018 0.669,4.247 1.179,4.247 1.9,4.247 2.386,3.846 2.386,3.117 2.386,2.537 2.098,2.182 1.698,1.88 1.132,1.458 0.876,1.175 0.847,0.732 H 2.398 V 0 Z"/></g><g transform="translate(77.0838,569.136)" id="g211"><path id="path213" style="fill:none;stroke:#ffffff;stroke-width:0.15000001;stroke-linecap:butt;stroke-linejoin:miter;stroke-miterlimit:4;stroke-dasharray:none;stroke-opacity:1" d="m 0,0 c 0.045,1.277 0.442,1.809 1.235,2.375 0.287,0.21 0.394,0.384 0.394,0.638 0,0.33 -0.171,0.484 -0.478,0.484 C 0.888,3.497 0.68,3.351 0.48,3.123 L 0.017,3.668 C 0.295,4.018 0.669,4.247 1.179,4.247 1.9,4.247 2.386,3.846 2.386,3.117 2.386,2.537 2.098,2.182 1.698,1.88 1.132,1.458 0.876,1.175 0.847,0.732 H 2.398 V 0 Z"/></g><g transform="translate(81.7464,569.07)" id="g215"><path id="path217" style="fill:#ffffff;fill-opacity:1;fill-rule:nonzero;stroke:none" d="m 0,0 c -0.564,0 -0.957,0.238 -1.286,0.763 l 0.591,0.419 c 0.227,-0.324 0.436,-0.449 0.716,-0.449 0.362,0 0.56,0.231 0.56,0.568 0,0.426 -0.278,0.602 -0.663,0.602 h -0.289 v 0.726 h 0.295 c 0.344,0 0.542,0.153 0.542,0.453 0,0.273 -0.13,0.488 -0.492,0.488 -0.225,0 -0.386,-0.093 -0.604,-0.309 l -0.504,0.507 c 0.303,0.339 0.596,0.545 1.155,0.545 0.728,0 1.197,-0.451 1.197,-1.141 C 1.218,2.701 0.976,2.434 0.63,2.306 0.997,2.203 1.341,1.903 1.341,1.32 1.341,0.501 0.839,0 0,0"/></g><g transform="translate(81.7464,569.07)" id="g219"><path id="path221" style="fill:none;stroke:#ffffff;stroke-width:0.15000001;stroke-linecap:butt;stroke-linejoin:miter;stroke-miterlimit:4;stroke-dasharray:none;stroke-opacity:1" d="m 0,0 c -0.564,0 -0.957,0.238 -1.286,0.763 l 0.591,0.419 c 0.227,-0.324 0.436,-0.449 0.716,-0.449 0.362,0 0.56,0.231 0.56,0.568 0,0.426 -0.278,0.602 -0.663,0.602 h -0.289 v 0.726 h 0.295 c 0.344,0 0.542,0.153 0.542,0.453 0,0.273 -0.13,0.488 -0.492,0.488 -0.225,0 -0.386,-0.093 -0.604,-0.309 l -0.504,0.507 c 0.303,0.339 0.596,0.545 1.155,0.545 0.728,0 1.197,-0.451 1.197,-1.141 C 1.218,2.701 0.976,2.434 0.63,2.306 0.997,2.203 1.341,1.903 1.341,1.32 1.341,0.501 0.839,0 0,0 Z"/></g></g></g></g></svg>